PathFileType	4	(X/Y/Z)	C:/Users/opensim2020/Desktop/walking_exp_matlab/subject06_walking19_straight_01.trc																																																																																																																																																	
DataRate	CameraRate	NumFrames	NumMarkers	Units	OrigDataRate	OrigDataStartFrame	OrigNumFrames																																																																																																																																													
100	100	6	49	mm	100	979	472																																																																																																																																													
Frame#	Time	LFHD			RFHD			LBHD			RBHD			C7			T10			CLAV			STRN			RBAK			LSHO			LUPA			LELB			LFRM			LWRA			LWRB			LFIN			RSHO			RUPA			RELB			RFRM			RWRA			RWRB			RFIN			LASI			RASI			LPSI			RPSI			LTHI			LKNE			LTIB			LANK			LHEE			LTOE			RTHI			RKNE			RTIB			RANK			RHEE			RTOE			*39			*40			*41			*42			*43			*44			*45			*46			*47			*48		
		X1	Y1	Z1	X2	Y2	Z2	X3	Y3	Z3	X4	Y4	Z4	X5	Y5	Z5	X6	Y6	Z6	X7	Y7	Z7	X8	Y8	Z8	X9	Y9	Z9	X10	Y10	Z10	X11	Y11	Z11	X12	Y12	Z12	X13	Y13	Z13	X14	Y14	Z14	X15	Y15	Z15	X16	Y16	Z16	X17	Y17	Z17	X18	Y18	Z18	X19	Y19	Z19	X20	Y20	Z20	X21	Y21	Z21	X22	Y22	Z22	X23	Y23	Z23	X24	Y24	Z24	X25	Y25	Z25	X26	Y26	Z26	X27	Y27	Z27	X28	Y28	Z28	X29	Y29	Z29	X30	Y30	Z30	X31	Y31	Z31	X32	Y32	Z32	X33	Y33	Z33	X34	Y34	Z34	X35	Y35	Z35	X36	Y36	Z36	X37	Y37	Z37	X38	Y38	Z38	X39	Y39	Z39	X40	Y40	Z40	X41	Y41	Z41	X42	Y42	Z42	X43	Y43	Z43	X44	Y44	Z44	X45	Y45	Z45	X46	Y46	Z46	X47	Y47	Z47	X48	Y48	Z48	X49	Y49	Z49
																																																																																																																																																				
119	1.18	-642.33594	1654.49097	1359.12769	-637.00958	1646.39087	1490.48267	-771.4823	1591.21033	1364.20679	-764.92328	1588.07214	1493.59729	-763.98877	1441.82886	1421.87683	-802.16797	1113.38904	1431.36279	-655.06738	1363.20752	1421.70081	-618.49695	1186.26318	1418.90723	-836.59924	1273.276	1506.55322	-710.7854	1393.30542	1259.0592	-740.97052	1193.49048	1189.18103	-761.7132	1082.72424	1178.68872	-750.24103	932.9787	1153.51636	-691.91302	815.56653	1187.9729	-756.01349	813.9715	1156.78796	-718.12567	731.22449	1151.07239	-693.55817	1397.16162	1582.65808	-723.9834	1199.10693	1674.70032	-709.51428	1077.45752	1686.40027	-681.37708	960.05048	1698.65149	-611.05408	829.34637	1656.69629	-659.49835	824.76013	1703.19067	-614.10077	754.18396	1699.95496	-623.16187	952.35193	1328.00989	-637.30188	950.32611	1547.01257	-783.33807	982.97455	1344.37012	-786.9057	984.72961	1514.31592	-646.4693	645.58569	1253.78833	-610.57294	489.8414	1281.15625	-583.59888	235.57149	1279.38843	-544.34802	69.04671	1318.81177	-582.62695	53.88686	1364.08496	-397.10571	44.98025	1327.3855	-746.67639	622.73181	1584.52124	-775.92456	499.43515	1563.05408	-910.5094	266.01907	1556.94043	-989.41022	95.3368	1512.0448	-1037.54297	81.3083	1469.33984	-847.32343	35.94921	1506.08228	-743.10205	1687.22131	1420.81714	NaN	NaN	NaN	NaN	NaN	NaN	NaN	NaN	NaN	NaN	NaN	NaN	NaN	NaN	NaN	NaN	NaN	NaN	NaN	NaN	NaN	NaN	NaN	NaN	NaN	NaN	NaN
120	1.19	-636.35944	1655.37097	1356.74939	-631.32587	1647.56299	1488.09131	-765.51807	1591.77344	1361.83398	-759.11255	1589.01416	1491.24707	-758.31342	1442.69519	1420.07727	-795.67841	1114.14563	1430.11572	-648.94635	1364.04712	1420.03577	-612.19012	1187.14392	1417.63086	-830.34363	1274.03882	1504.7113	-704.51855	1393.81677	1257.29968	-734.20026	1193.82971	1187.67505	-754.72528	1083.08313	1177.19165	-743.20331	933.23956	1152.29773	-685.37555	815.48376	1187.245	-749.60406	814.32074	1155.552	-711.80273	731.34174	1150.29114	-687.71503	1398.31299	1580.98254	-718.67889	1200.24963	1672.99744	-704.36407	1078.5708	1684.67346	-676.84216	960.98193	1697.10193	-607.1908	829.74402	1655.75244	-655.76489	825.54333	1702.05151	-610.79333	754.71027	1699.06543	-616.94104	953.18292	1326.63525	-630.36029	951.12445	1545.8241	-776.98865	984.12329	1343.41602	-780.16339	985.50507	1513.23633	-641.64392	646.32727	1252.89172	-606.2663	490.39096	1280.38672	-580.42731	236.00034	1279.23022	-543.69672	69.09541	1319.1615	-582.27106	53.9846	1364.24866	-396.67184	44.30513	1327.85913	-740.19135	623.30994	1583.74219	-769.41614	499.98257	1562.15967	-906.6618	267.95209	1557.06482	-987.62512	98.00935	1512.94434	-1036.30933	84.92566	1470.64294	-847.26068	35.84519	1506.15076	-737.35492	1687.9873	1418.16992	NaN	NaN	NaN	NaN	NaN	NaN	NaN	NaN	NaN	NaN	NaN	NaN	NaN	NaN	NaN	NaN	NaN	NaN	NaN	NaN	NaN	NaN	NaN	NaN	NaN	NaN	NaN
121	1.2	-630.50861	1656.37292	1354.36182	-625.53278	1648.98425	1485.74756	-759.55817	1592.68066	1359.47986	-753.30945	1590.26599	1488.91626	-751.89374	1443.70056	1418.01013	-789.18787	1115.26831	1428.93396	-642.80212	1365.22937	1418.4021	-605.85773	1188.2677	1416.20874	-824.10242	1275.03979	1502.92078	-698.19543	1394.57739	1255.50452	-727.21783	1194.3479	1186.38025	-747.66937	1083.62439	1175.73401	-736.51007	933.84363	1151.03845	-678.87726	815.93555	1186.44312	-743.00873	814.98029	1154.3689	-705.46008	731.88477	1149.40857	-681.80353	1399.67236	1579.29236	-713.31323	1201.66309	1671.26245	-699.08948	1079.89429	1682.9873	-672.37134	962.14026	1695.64954	-603.27051	830.35199	1654.76929	-652.17682	826.52283	1700.78979	-607.64862	755.41376	1698.19824	-610.71405	954.2854	1325.08826	-623.46985	952.13245	1544.24927	-770.59961	985.44666	1342.43628	-772.87268	986.4342	1512.17468	-636.50922	647.52222	1252.29102	-601.85767	491.18796	1279.78943	-578.36584	236.5894	1278.74805	-543.56012	69.17647	1319.38599	-582.35291	53.94146	1364.25159	-396.34988	44.13219	1328.77722	-733.55493	623.98077	1582.91418	-762.51782	500.52002	1561.13684	-902.32825	269.98767	1557.16138	-985.7829	101.09379	1513.94055	-1034.78406	88.89872	1471.95654	-846.87067	35.78142	1506.04565	-731.59247	1689.08118	1415.62842	NaN	NaN	NaN	NaN	NaN	NaN	NaN	NaN	NaN	NaN	NaN	NaN	NaN	NaN	NaN	NaN	NaN	NaN	NaN	NaN	NaN	NaN	NaN	NaN	NaN	NaN	NaN
122	1.21	-624.50513	1657.62427	1352.05054	-619.75623	1650.53394	1483.4718	-753.52905	1593.79993	1357.15857	-747.46552	1591.74927	1486.62793	-745.815	1444.92529	1416.07593	-782.95703	1116.64075	1427.72852	-636.69556	1366.56836	1416.72864	-599.55865	1189.59753	1414.75842	-817.82275	1276.39587	1501.25732	-691.82373	1395.55273	1253.73779	-720.52258	1195.21399	1184.62134	-740.58197	1084.44592	1174.31604	-729.34216	934.552	1149.74329	-672.15564	816.62976	1185.62915	-736.18512	815.76135	1153.05859	-698.50549	732.53339	1148.67224	-675.82898	1401.24658	1577.53259	-707.82031	1203.24268	1669.53992	-693.90076	1081.40613	1681.18005	-667.87933	963.52887	1694.14087	-599.36548	831.23798	1653.77124	-648.63666	827.69012	1699.46924	-604.66443	756.33661	1697.20593	-604.38409	955.60712	1323.45581	-616.69	953.29462	1542.70459	-764.36682	986.89874	1341.625	-766.08539	987.66656	1511.19788	-631.25922	648.91284	1251.72412	-597.61621	491.99551	1279.10242	-577.23138	237.15749	1278.48584	-543.59338	69.42413	1319.31018	-582.52637	53.97224	1364.11938	-396.25925	44.06075	1329.49573	-726.65289	624.78217	1581.88721	-755.28857	501.14743	1560.17126	-897.77057	272.21201	1557.29626	-983.86127	104.57136	1515.01233	-1032.97241	93.1108	1473.16431	-846.54425	35.8279	1505.97681	-725.72821	1690.44702	1413.07751	NaN	NaN	NaN	NaN	NaN	NaN	NaN	NaN	NaN	NaN	NaN	NaN	NaN	NaN	NaN	NaN	NaN	NaN	NaN	NaN	NaN	NaN	NaN	NaN	NaN	NaN	NaN
123	1.22	-618.62512	1658.88843	1349.69617	-613.92676	1652.15686	1481.11292	-747.59332	1595.07605	1354.91724	-741.5943	1593.32971	1484.36206	-739.70801	1446.26746	1414.1991	-776.487	1118.08118	1426.46399	-630.58954	1367.98315	1414.87695	-593.15674	1191.08167	1413.18323	-811.53772	1277.84424	1499.63684	-685.48242	1396.75586	1252.01868	-713.41443	1196.19653	1183.29126	-733.30981	1085.49329	1172.77087	-722.10773	935.53674	1148.49243	-665.2652	817.5451	1184.81934	-729.08966	816.75616	1151.80579	-691.78577	733.44196	1147.61719	-669.75098	1402.98999	1575.76648	-702.2016	1205.07861	1667.7605	-688.56317	1083.15747	1679.43542	-663.37524	965.11304	1692.7312	-595.50299	832.23206	1652.70825	-644.99384	829.07935	1698.16626	-601.52783	757.3114	1696.08899	-598.16553	957.04688	1321.8678	-610.00592	954.65826	1540.96057	-758.01495	988.38855	1340.84961	-759.31738	989.07733	1510.27124	-626.18933	650.25476	1251.18665	-594.01605	492.74374	1278.10571	-576.33777	237.6192	1277.92615	-543.5365	69.43813	1319.15698	-582.62665	53.96609	1363.82642	-396.17499	43.96911	1329.70825	-719.47015	625.71814	1580.95227	-747.80164	501.99432	1559.28003	-892.93353	274.6319	1557.37976	-981.34174	107.98737	1515.73413	-1030.86023	97.59289	1474.2229	-846.07007	35.88297	1505.89563	-719.87006	1691.82446	1410.59497	NaN	NaN	NaN	NaN	NaN	NaN	NaN	NaN	NaN	NaN	NaN	NaN	NaN	NaN	NaN	NaN	NaN	NaN	NaN	NaN	NaN	NaN	NaN	NaN	NaN	NaN	NaN
124	1.23	-612.69855	1660.27002	1347.39331	-608.20953	1653.79858	1478.74951	-741.61157	1596.38074	1352.65942	-735.69501	1594.92517	1482.13123	-733.48859	1447.58777	1412.26929	-770.03552	1119.57544	1425.06519	-624.42175	1369.53015	1413.2439	-586.69177	1192.64758	1411.61121	-805.09003	1279.46765	1498.08325	-679.13318	1398.0918	1250.3053	-706.66479	1197.55115	1181.48962	-726.18127	1086.73413	1171.302	-714.78387	936.71143	1147.14709	-658.35986	818.68811	1183.93774	-721.75775	817.96625	1150.48352	-684.69897	734.51685	1146.83618	-663.5791	1404.83105	1573.95923	-696.36566	1207.05469	1666.17017	-683.28613	1085.021	1677.57434	-658.79584	966.83484	1691.26978	-591.69885	833.3653	1651.62659	-641.36572	830.63727	1696.83801	-598.33624	758.46039	1695.1095	-591.86298	958.53784	1320.22595	-603.26563	956.17102	1539.36035	-751.68164	989.87988	1339.95801	-752.53601	990.46173	1509.17664	-621.2901	651.41425	1250.3866	-590.86487	493.3248	1276.92188	-575.45422	238.04283	1277.35083	-543.63843	69.45448	1318.93359	-582.75043	54.00504	1363.56274	-396.27588	43.78917	1329.41187	-712.17603	626.74219	1580.03711	-740.01282	502.92972	1558.35144	-887.88776	277.12704	1557.40381	-978.77179	111.76927	1516.49988	-1028.43628	102.38986	1475.1554	-845.58496	35.92289	1505.75781	-713.96826	1693.26062	1408.16858	NaN	NaN	NaN	NaN	NaN	NaN	NaN	NaN	NaN	NaN	NaN	NaN	NaN	NaN	NaN	NaN	NaN	NaN	NaN	NaN	NaN	NaN	NaN	NaN	NaN	NaN	NaN
